<svg id="Bank_Logo" data-name="Bank Logo" xmlns="http://www.w3.org/2000/svg" width="40" height="40" viewBox="0 0 40 40">
  <circle id="Ellipse_48" data-name="Ellipse 48" cx="20" cy="20" r="20" fill="#585d67"/>
  <g id="Group_156" data-name="Group 156" transform="translate(-4699 -2911.654)">
    <path id="Polygon_2" data-name="Polygon 2" d="M15.139.14a1,1,0,0,1,.722,0L26.008,4.067A1,1,0,0,1,25.647,6H5.353a1,1,0,0,1-.361-1.933Z" transform="translate(4704 2920.654)" fill="#dcdcdc"/>
    <rect id="Rectangle_31" data-name="Rectangle 31" width="2" height="8" rx="1" transform="translate(4711 2927.654)" fill="#dcdcdc"/>
    <rect id="Rectangle_31-2" data-name="Rectangle 31" width="2" height="8" rx="1" transform="translate(4716 2927.654)" fill="#dcdcdc"/>
    <rect id="Rectangle_31-3" data-name="Rectangle 31" width="2" height="8" rx="1" transform="translate(4721 2927.654)" fill="#dcdcdc"/>
    <rect id="Rectangle_31-4" data-name="Rectangle 31" width="2" height="8" rx="1" transform="translate(4726 2927.654)" fill="#dcdcdc"/>
    <rect id="Rectangle_32" data-name="Rectangle 32" width="23" height="2" rx="1" transform="translate(4708 2936.654)" fill="#dcdcdc"/>
    <rect id="Rectangle_33" data-name="Rectangle 33" width="27" height="2" rx="1" transform="translate(4706 2939.654)" fill="#dcdcdc"/>
  </g>
</svg>
